<?xml version="1.0" standalone="no"?>
<!DOCTYPE svg PUBLIC "-//W3C//DTD SVG 20010904//EN"
 "http://www.w3.org/TR/2001/REC-SVG-20010904/DTD/svg10.dtd">
<svg version="1.0" xmlns="http://www.w3.org/2000/svg"
 width="512.000000pt" height="512.000000pt" viewBox="0 0 512.000000 512.000000"
 preserveAspectRatio="xMidYMid meet">
<metadata>
Created by potrace 1.16, written by Peter Selinger 2001-2019
</metadata>
<g transform="translate(0.000000,512.000000) scale(0.100000,-0.100000)"
fill="#000000" stroke="none">
<path d="M2442 4827 c-12 -7 -30 -24 -40 -37 -16 -23 -17 -73 -17 -660 l0
-635 23 -64 c28 -78 78 -158 142 -225 l48 -51 -96 -85 c-161 -143 -501 -487
-627 -635 -309 -360 -505 -672 -605 -965 -43 -125 -45 -123 -30 31 62 638 179
1183 340 1579 69 169 57 258 -46 349 -47 41 -121 71 -176 71 -104 0 -188 -60
-242 -173 -70 -146 -165 -452 -260 -832 -121 -489 -169 -842 -170 -1265 l-1
-265 33 -95 c92 -264 284 -443 546 -510 78 -20 108 -20 1575 -20 1475 0 1496
0 1529 20 56 34 74 74 69 155 -5 85 -37 155 -96 208 -23 21 -102 67 -176 104
l-135 68 -135 405 -135 405 0 670 1 670 75 64 c142 120 230 250 254 376 8 42
10 248 8 678 l-3 619 -33 29 c-25 23 -42 29 -77 29 -42 0 -58 -10 -311 -200
l-268 -200 -163 0 -163 0 -267 200 c-246 185 -269 200 -307 200 -23 -1 -51 -6
-64 -13z"/>
</g>
</svg>
