<?xml version="1.0" ?><!DOCTYPE svg  PUBLIC '-//W3C//DTD SVG 1.1//EN'  'http://www.w3.org/Graphics/SVG/1.1/DTD/svg11.dtd'><svg enable-background="new 0 0 500 500" height="24px" id="Layer_1" version="1.1" viewBox="0 0 500 500" width="24px" xml:space="preserve" xmlns="http://www.w3.org/2000/svg" xmlns:xlink="http://www.w3.org/1999/xlink"><path clip-rule="evenodd" d="M91.505,372.155c0,20.078,16.262,36.341,36.34,36.341h9.086v31.801  c0,12.537,10.177,22.712,22.713,22.712c12.538,0,22.713-10.175,22.713-22.712v-31.801h45.429v31.801  c0,12.537,10.177,22.712,22.713,22.712c12.537,0,22.715-10.175,22.715-22.712v-31.801h45.427v31.801  c0,12.537,10.176,22.712,22.711,22.712c12.541,0,22.717-10.175,22.717-22.712v-31.801h9.086c20.078,0,36.34-16.263,36.34-36.341  v-9.086h31.802c12.536,0,22.711-10.175,22.711-22.716c0-12.536-10.175-22.711-22.711-22.711h-31.802v-45.427h31.802  c12.536,0,22.711-10.179,22.711-22.715c0-12.536-10.175-22.713-22.711-22.713h-31.802v-45.429h31.802  c12.536,0,22.711-10.175,22.711-22.713c0-12.536-10.175-22.713-22.711-22.713h-31.802v-9.086c0-20.079-16.262-36.34-36.34-36.34  h-9.086v-31.8c0-12.538-10.176-22.715-22.717-22.715c-12.535,0-22.711,10.177-22.711,22.715v31.8h-45.427v-31.8  c0-12.538-10.178-22.715-22.715-22.715c-12.536,0-22.713,10.177-22.713,22.715v31.8h-45.429v-31.8  c0-12.538-10.175-22.715-22.713-22.715c-12.536,0-22.713,10.177-22.713,22.715v31.8h-9.086c-20.079,0-36.34,16.261-36.34,36.34  v9.086h-31.8c-12.538,0-22.713,10.177-22.713,22.713c0,12.539,10.175,22.713,22.713,22.713h31.8v45.429h-31.8  c-12.538,0-22.713,10.177-22.713,22.713c0,12.537,10.175,22.715,22.713,22.715h31.8v45.427h-31.8  c-12.538,0-22.713,10.175-22.713,22.711c0,12.541,10.175,22.716,22.713,22.716h31.8V372.155z M318.642,201.35v96.301  c0,11.08-8.911,19.991-19.991,19.991h-96.301c-11.083,0-19.991-8.911-19.991-19.991V201.35c0-11.086,8.909-19.991,19.991-19.991  h96.301C309.73,181.359,318.642,190.264,318.642,201.35z" fill="#E0E0E0" fill-rule="evenodd"/></svg>